<?xml version="1.0" encoding="UTF-8" standalone="no"?>
<!DOCTYPE svg PUBLIC "-//W3C//DTD SVG 1.1//EN" "http://www.w3.org/Graphics/SVG/1.1/DTD/svg11.dtd">
<svg width="100%" height="100%" viewBox="0 0 150 151" version="1.1" xmlns="http://www.w3.org/2000/svg" xmlns:xlink="http://www.w3.org/1999/xlink" xml:space="preserve" xmlns:serif="http://www.serif.com/" style="fill-rule:evenodd;clip-rule:evenodd;stroke-linecap:round;stroke-linejoin:round;stroke-miterlimit:1.5;">
    <g transform="matrix(1,0,0,1,-1376,-2591)">
        <g id="Plan-de-travail3" serif:id="Plan de travail3" transform="matrix(0.925926,0,0,0.925926,-5990.67,2375.76)">
            <rect x="7956" y="233" width="162" height="162" style="fill:none;"/>
            <clipPath id="_clip1">
                <rect x="7956" y="233" width="162" height="162"/>
            </clipPath>
            <g clip-path="url(#_clip1)">
                <g transform="matrix(1.08,0,0,1.08,-895.68,24.56)">
                    <path d="M8213,336C8213,336 8234.68,324.835 8242,325C8249.32,325.165 8253,329 8253,329L8253,337L8213,336Z" style="fill:rgb(160,219,169);"/>
                    <path d="M8252,288C8252,288 8256.43,320.335 8249,324C8241.57,327.665 8256,330 8256,330L8266,305L8266,290L8252,288" style="fill:rgb(239,239,238);"/>
                    <g transform="matrix(0.32928,0,0,0.32928,8131.14,212.808)">
                        <path d="M245,379L395.648,379C395.648,379 438.93,246.184 514,180" style="fill:none;"/>
                    </g>
                    <g transform="matrix(0.292722,0,0,0.292722,8147.17,223.288)">
                        <path d="M458.339,268.548C475.289,261.395 508.415,249.256 542.343,234.041" style="fill:none;"/>
                    </g>
                    <g transform="matrix(0.292722,0,0,0.292722,8144.17,225.288)">
                        <path d="M631.627,180.623C683.837,129.599 678.394,84.66 678.394,84.66L620.005,102.499C620.005,102.499 648.807,74.933 689.877,50.748C730.947,26.564 443.177,47.228 427.502,269.252C427.502,269.252 448.383,262.229 465.171,258.299" style="fill:rgb(245,223,78);"/>
                    </g>
                    <g transform="matrix(0.32928,0,0,0.32928,8131.14,-50.6153)">
                        <path d="M299,848C299,848 304.162,923.545 311,962C321.903,1023.32 394.43,1064.68 417,1055" style="fill:none;"/>
                    </g>
                    <g transform="matrix(0.32928,0,0,0.32928,8129.49,-61.4816)">
                        <path d="M520.705,928.018C520.705,928.018 514.573,788.69 399.401,790.599C262.757,792.863 256.393,908.056 242.963,983.705C229.533,1059.35 247.717,1078.41 283,1107C301.903,1122.32 229.43,1135.35 259,1174C259,1174 343.918,1184.28 359.895,1164.61C375.873,1144.94 369.006,1079.57 369.006,1079.57C369.006,1079.57 297.352,1044.58 296.12,1015.8C294.888,987.017 271.032,1020.28 268.787,1000.61C266.543,980.943 256.64,955.059 256.64,955.059C256.64,955.059 282.435,926.948 291.988,912.337C306.983,889.404 346.16,858.339 375.08,866.988C444.71,887.81 465.395,941.323 496.557,945.948C523.923,935.389 520.705,928.018 520.705,928.018Z" style="fill:rgb(44,34,29);"/>
                    </g>
                    <g transform="matrix(0.32928,0,0,0.32928,8131.14,-50.6153)">
                        <path d="M301,898C301,898 270.097,905.684 278,940C285.903,974.316 301.43,985.018 315,977" style="fill:none;"/>
                    </g>
                    <g transform="matrix(0.32928,0,0,0.32928,8131.14,-53.2496)">
                        <path d="M342,914L389,914" style="fill:none;"/>
                    </g>
                    <g transform="matrix(0.293692,0,0,0.293692,8148.13,230.041)">
                        <path d="M472,58C472,58 443.43,49.684 430,64C421.903,80.982 423,149 423,149L388,150" style="fill:none;"/>
                    </g>
                    <g transform="matrix(0.32928,0,0,0.32928,8131.14,-50.6153)">
                        <path d="M381,1052C381,1052 388.097,1105.02 377,1125C365.903,1144.98 403,1154 403,1154" style="fill:none;"/>
                    </g>
                    <g transform="matrix(0.32928,0,0,0.32928,8131.14,-50.6153)">
                        <path d="M370,1136C370,1136 263.43,1147.02 246,1176" style="fill:none;"/>
                    </g>
                    <g transform="matrix(0.32928,0,0,0.32928,8123.57,-43.0419)">
                        <path d="M427,812C427,812 483.097,820.351 503,857C524.494,896.578 538,893 538,893" style="fill:none;"/>
                    </g>
                    <g transform="matrix(0.474287,0,0,0.474287,8073.66,-219.579)">
                        <path d="M562,1162C557.403,1112.85 533,1093 533,1093L533,1069L481,1069L481,1093C481,1093 456.597,1112.85 452,1162" style="fill:rgb(0,160,113);"/>
                    </g>
                    <g transform="matrix(0.474287,0,0,0.474287,8073.08,-223.95)">
                        <circle cx="504" cy="1134" r="16" style="fill:rgb(160,219,169);"/>
                    </g>
                    <g transform="matrix(0.311383,0,0,0.311383,8144.95,-25.9578)">
                        <path d="M627,1151.5C627,1147.36 623.639,1144 619.5,1144L465.5,1144C461.361,1144 458,1147.36 458,1151.5L458,1166.5C458,1170.64 461.361,1174 465.5,1174L619.5,1174C623.639,1174 627,1170.64 627,1166.5L627,1151.5Z" style="fill:rgb(160,219,169);"/>
                    </g>
                    <g transform="matrix(0.218195,0,0,0.244468,8196.47,-0.145947)">
                        <path d="M627,1159C627,1150.72 619.469,1144 610.194,1144L474.806,1144C465.531,1144 458,1150.72 458,1159C458,1167.28 465.531,1174 474.806,1174L610.194,1174C619.469,1174 627,1167.28 627,1159Z" style="fill:rgb(160,219,169);"/>
                    </g>
                    <path d="M8228,231C8228,231 8222.73,275.475 8248,289C8262.32,296.665 8267,291 8267,291C8267,291 8284.68,254.335 8290,253C8295.32,251.665 8281.18,245.363 8279,240C8275.82,232.165 8258.68,221.835 8254,222C8249.32,222.165 8235.43,222.585 8228,231Z" style="fill:rgb(239,239,238);"/>
                    <g transform="matrix(0.32928,0,0,0.32928,8122.35,212.808)">
                        <path d="M245,379L395.648,379C395.648,379 438.93,246.184 514,180" style="fill:none;stroke:black;stroke-width:18.22px;"/>
                    </g>
                    <g transform="matrix(0.292722,0,0,0.292722,8138.38,223.288)">
                        <path d="M458.339,268.548C475.289,261.395 508.415,249.256 542.343,234.041" style="fill:none;stroke:black;stroke-width:20.5px;stroke-dasharray:409.95,40.99,0,0;"/>
                    </g>
                    <g transform="matrix(0.292722,0,0,0.292722,8138.38,223.288)">
                        <path d="M631.627,180.623C683.837,129.599 678.394,84.66 678.394,84.66L620.005,102.499C620.005,102.499 648.807,74.933 689.877,50.748C730.947,26.564 443.177,33.563 437.75,279.5C437.75,279.5 441.55,272.477 458.339,268.548" style="fill:none;stroke:black;stroke-width:20.5px;stroke-dasharray:409.95,40.99,0,0;"/>
                    </g>
                    <g transform="matrix(0.32928,0,0,0.32928,8122.35,-50.6153)">
                        <path d="M299,848C299,848 304.162,923.545 311,962C321.903,1023.32 394.43,1064.68 417,1055" style="fill:none;stroke:black;stroke-width:18.22px;stroke-dasharray:364.43,36.44,0,0;"/>
                    </g>
                    <g transform="matrix(0.32928,0,0,0.32928,8120.7,-61.4816)">
                        <path d="M545,909.796C545,909.796 535.832,782.616 399.401,790.599C262.971,798.581 259.43,932.351 246,1008C232.57,1083.65 247.717,1078.41 283,1107C301.903,1122.32 229.43,1135.35 259,1174" style="fill:none;stroke:black;stroke-width:18.22px;stroke-dasharray:364.43,36.44,0,0;"/>
                    </g>
                    <g transform="matrix(0.32928,0,0,0.32928,8122.35,-50.6153)">
                        <path d="M301,898C301,898 270.097,905.684 278,940C285.903,974.316 301.43,985.018 315,977" style="fill:none;stroke:black;stroke-width:18.22px;stroke-dasharray:364.43,36.44,0,0;"/>
                    </g>
                    <g transform="matrix(0.32928,0,0,0.32928,8122.35,-53.2496)">
                        <path d="M342,914L389,914" style="fill:none;stroke:black;stroke-width:18.22px;stroke-dasharray:364.43,36.44,0,0;"/>
                    </g>
                    <g transform="matrix(0.293692,0,0,0.293692,8139.34,230.041)">
                        <path d="M472,58C472,58 443.43,49.684 430,64C421.903,80.982 423,149 423,149L388,150" style="fill:none;stroke:black;stroke-width:20.43px;stroke-dasharray:408.59,40.86,0,0;"/>
                    </g>
                    <g transform="matrix(0.32928,0,0,0.32928,8122.35,-50.6153)">
                        <path d="M381,1052C381,1052 388.097,1105.02 377,1125C365.903,1144.98 403,1154 403,1154" style="fill:none;stroke:black;stroke-width:18.22px;stroke-dasharray:364.43,36.44,0,0;"/>
                    </g>
                    <g transform="matrix(0.32928,0,0,0.32928,8122.35,-50.6153)">
                        <path d="M370,1136C370,1136 263.43,1147.02 246,1176" style="fill:none;stroke:black;stroke-width:18.22px;stroke-dasharray:364.43,36.44,0,0;"/>
                    </g>
                    <g transform="matrix(0.32928,0,0,0.32928,8114.78,-43.0419)">
                        <path d="M427,812C427,812 483.097,820.351 503,857C524.494,896.578 538,893 538,893" style="fill:none;stroke:black;stroke-width:18.22px;stroke-dasharray:364.43,36.44,0,0;"/>
                    </g>
                    <g transform="matrix(0.474287,0,0,0.474287,8069.87,-221.579)">
                        <path d="M562,1162C557.403,1112.85 533,1093 533,1093L533,1069L481,1069L481,1093C481,1093 456.597,1112.85 452,1162" style="fill:none;stroke:black;stroke-width:12.65px;stroke-dasharray:253.01,25.3,0,0;"/>
                    </g>
                    <g transform="matrix(0.474287,0,0,0.474287,8071.29,-223.95)">
                        <circle cx="504" cy="1134" r="16" style="fill:none;stroke:black;stroke-width:12.65px;stroke-dasharray:253.01,25.3,0,0;"/>
                    </g>
                    <g transform="matrix(0.311383,0,0,0.311383,8141.16,-27.9578)">
                        <path d="M627,1151.5C627,1147.36 623.639,1144 619.5,1144L465.5,1144C461.361,1144 458,1147.36 458,1151.5L458,1166.5C458,1170.64 461.361,1174 465.5,1174L619.5,1174C623.639,1174 627,1170.64 627,1166.5L627,1151.5Z" style="fill:none;stroke:black;stroke-width:19.27px;stroke-dasharray:385.38,38.54,0,0;"/>
                    </g>
                    <g transform="matrix(0.218195,0,0,0.244468,8192.68,-2.14595)">
                        <path d="M627,1159C627,1150.72 619.469,1144 610.194,1144L474.806,1144C465.531,1144 458,1150.72 458,1159C458,1167.28 465.531,1174 474.806,1174L610.194,1174C619.469,1174 627,1167.28 627,1159Z" style="fill:none;stroke:black;stroke-width:25.9px;stroke-dasharray:517.9,51.79,0,0;"/>
                    </g>
                    <g transform="matrix(0.32928,0,0,0.32928,8114.78,-43.0419)">
                        <path d="M427,812C427,812 483.097,820.351 503,857C524.494,896.578 538,893 538,893" style="fill:none;stroke:black;stroke-width:18.22px;stroke-dasharray:364.43,36.44,0,0;"/>
                    </g>
                </g>
            </g>
        </g>
    </g>
</svg>
