<?xml version="1.0" encoding="UTF-8" standalone="no"?>
<!DOCTYPE svg PUBLIC "-//W3C//DTD SVG 1.1//EN" "http://www.w3.org/Graphics/SVG/1.1/DTD/svg11.dtd">
<svg width="100%" height="100%" viewBox="0 0 562 171" version="1.1" xmlns="http://www.w3.org/2000/svg" xmlns:xlink="http://www.w3.org/1999/xlink" xml:space="preserve" xmlns:serif="http://www.serif.com/" style="fill-rule:evenodd;clip-rule:evenodd;stroke-linecap:round;stroke-linejoin:round;stroke-miterlimit:1.5;">
    <g transform="matrix(1,0,0,1,0,-3509)">
        <g id="Plan-de-travail5" serif:id="Plan de travail5" transform="matrix(2.94241,0,0,0.890052,3969.31,1809.11)">
            <rect x="-1349" y="1910" width="191" height="191" style="fill:none;"/>
            <g transform="matrix(0.410645,0,0,1.35754,-1301.64,-1054.27)">
                <path d="M117.167,2237.36L117.167,2220.73L124.175,2220.73L124.175,2237.92L133.391,2237.92L133.391,2242.52L124.175,2242.52L124.175,2281.21C124.175,2283.9 124.479,2285.8 125.087,2286.92C125.695,2288.04 127.023,2288.6 129.071,2288.6C129.647,2288.6 130.303,2288.56 131.039,2288.46C131.775,2288.36 132.463,2288.25 133.103,2288.12L133.103,2293.5C132.143,2293.69 131.151,2293.84 130.127,2293.93C129.103,2294.03 128.111,2294.08 127.151,2294.08C124.463,2294.08 122.399,2293.55 120.959,2292.49C119.519,2291.44 118.527,2290 117.983,2288.17C117.439,2286.35 117.167,2284.25 117.167,2281.88L117.167,2244.53C107.86,2250.84 107.606,2257.5 105.835,2265.02L105.696,2265.59C104.555,2270.25 102.893,2275.22 99.06,2280.62L98.785,2281L98.378,2281.55L98.072,2281.96L97.407,2282.8C94.347,2286.6 89.588,2289.53 84.21,2291.68C77.508,2294.36 69.852,2295.85 63.9,2296.66C63.756,2296.71 63.601,2296.75 63.436,2296.79C63.268,2296.83 61.82,2296.99 61.82,2296.99L61.519,2297C60.562,2297.01 59.664,2296.62 59.014,2295.96L58.703,2297.34C58.191,2299.71 57.279,2301.61 55.967,2303.05C54.655,2304.49 52.927,2305.55 50.783,2306.22C48.639,2306.89 45.999,2307.23 42.863,2307.23L41.039,2307.23L41.039,2301.76C44.239,2301.76 46.655,2301.52 48.287,2301.04C49.919,2300.56 51.007,2299.88 51.551,2299.02C52.095,2298.16 52.367,2297.15 52.367,2296C52.367,2294.97 52.175,2293.63 51.791,2291.96C51.407,2290.3 50.991,2288.57 50.543,2286.78L39.119,2237.92L46.127,2237.92L55.727,2285.15L65.039,2237.92L72.143,2237.92L60.344,2290.08C67.815,2285.19 69.629,2280.15 70.91,2274.61C72.511,2267.69 73.508,2260.16 80.492,2251.49C83.596,2247.63 88.395,2244.68 93.799,2242.52C99.177,2240.37 105.147,2238.99 110.351,2238.12L110.351,2237.92L111.648,2237.92C113.231,2237.67 114.728,2237.47 116.097,2237.31L116.5,2237.29L116.631,2237.29L117.149,2237.35L117.167,2237.36ZM224.702,2294C223.58,2294.18 222.359,2294.27 221.039,2294.27C217.583,2294.27 214.751,2293.58 212.543,2292.2C210.335,2290.83 208.703,2288.54 207.647,2285.34C206.591,2282.14 206.063,2277.88 206.063,2272.57L206.063,2258.56C206.063,2253.05 206.607,2248.75 207.695,2245.64C208.783,2242.54 210.447,2240.33 212.687,2239.02C214.927,2237.71 217.743,2237.05 221.135,2237.05C225.039,2237.05 228.015,2237.88 230.063,2239.55C232.111,2241.21 233.535,2243.72 234.335,2247.08C235.135,2250.44 235.535,2254.75 235.535,2260L235.535,2264.99L213.071,2264.99L213.071,2274.68C213.071,2278.27 213.343,2281.1 213.887,2283.18C214.431,2285.26 215.295,2286.75 216.479,2287.64C217.663,2288.54 219.183,2288.99 221.039,2288.99C222.447,2288.99 223.727,2288.72 224.879,2288.17C226.031,2287.63 226.943,2286.57 227.615,2285C228.287,2283.44 228.623,2281.21 228.623,2278.33L228.623,2274.49L235.439,2274.49L235.439,2277.56C235.439,2278.97 235.358,2280.3 235.196,2281.56C236.367,2279.32 237.022,2277.01 237.577,2274.61C239.178,2267.69 240.174,2260.16 247.159,2251.49C250.263,2247.63 255.062,2244.68 260.465,2242.52C267.977,2239.52 276.646,2238.02 282.764,2237.31L283.167,2237.29L283.298,2237.29L283.816,2237.35L284.235,2237.46L284.718,2237.65L285.113,2237.88L285.157,2237.92L287.663,2237.92L287.663,2287.6C292.411,2283.48 293.845,2279.22 294.91,2274.61C296.511,2267.69 297.508,2260.16 304.492,2251.49C307.596,2247.63 312.395,2244.68 317.799,2242.52C325.311,2239.52 333.979,2238.02 340.097,2237.31L340.5,2237.29L340.631,2237.29L341.149,2237.35L341.569,2237.46L342.051,2237.65L342.446,2237.88L342.785,2238.14L343.131,2238.48L343.437,2238.89L343.701,2239.37L343.825,2239.7L343.946,2240.18L343.998,2240.66L343.974,2241.21L343.904,2241.61L343.749,2242.09L343.565,2242.48L343.261,2242.94L342.945,2243.3L342.511,2243.66L341.819,2244.1C331.871,2250.54 331.647,2257.33 329.835,2265.02L329.696,2265.59C328.555,2270.25 326.893,2275.22 323.06,2280.62L322.785,2281L322.378,2281.55L322.072,2281.96L321.407,2282.8C318.347,2286.6 313.588,2289.53 308.21,2291.68C301.508,2294.36 293.852,2295.85 287.9,2296.66C287.756,2296.71 287.601,2296.75 287.436,2296.79C287.268,2296.83 285.82,2296.99 285.82,2296.99L285.519,2297C284.022,2297.01 282.668,2296.06 282.183,2294.62C282.048,2294.22 281.99,2293.81 282.001,2293.4L280.655,2293.4L280.655,2247C274.436,2252.58 274.044,2258.47 272.501,2265.02L272.363,2265.59C271.222,2270.25 269.56,2275.22 265.727,2280.62L265.451,2281L265.045,2281.55L264.738,2281.96L264.074,2282.8C261.013,2286.6 256.254,2289.53 250.876,2291.68C244.174,2294.36 236.519,2295.85 230.567,2296.66C230.422,2296.71 230.268,2296.75 230.103,2296.79C229.935,2296.83 228.487,2296.99 228.487,2296.99L228.186,2297C226.688,2297.01 225.335,2296.06 224.85,2294.62C224.781,2294.41 224.732,2294.21 224.702,2294ZM154.799,2294.27C151.343,2294.27 148.511,2293.58 146.303,2292.2C144.095,2290.83 142.463,2288.54 141.407,2285.34C140.351,2282.14 139.823,2277.88 139.823,2272.57L139.823,2258.56C139.823,2253.05 140.367,2248.75 141.455,2245.64C142.543,2242.54 144.207,2240.33 146.447,2239.02C148.687,2237.71 151.503,2237.05 154.895,2237.05C158.799,2237.05 161.775,2237.88 163.823,2239.55C165.871,2241.21 167.295,2243.72 168.095,2247.08C168.895,2250.44 169.295,2254.75 169.295,2260L169.295,2264.99L146.831,2264.99L146.831,2274.68C146.831,2278.27 147.103,2281.1 147.647,2283.18C148.191,2285.26 149.055,2286.75 150.239,2287.64C151.423,2288.54 152.943,2288.99 154.799,2288.99C156.207,2288.99 157.487,2288.72 158.639,2288.17C159.791,2287.63 160.703,2286.57 161.375,2285C162.047,2283.44 162.383,2281.21 162.383,2278.33L162.383,2274.49L169.199,2274.49L169.199,2277.56C169.199,2282.62 168.159,2286.67 166.079,2289.71C163.999,2292.75 160.239,2294.27 154.799,2294.27ZM3.119,2293.4L3.119,2215.64L10.127,2215.64L10.127,2243.77C11.983,2241.79 14.031,2240.17 16.271,2238.92C18.511,2237.68 20.975,2237.05 23.663,2237.05C25.519,2237.05 27.071,2237.52 28.319,2238.44C29.567,2239.37 30.527,2240.72 31.199,2242.48C31.871,2244.24 32.207,2246.36 32.207,2248.86L32.207,2293.4L25.103,2293.4L25.103,2250.4C25.103,2247.52 24.671,2245.48 23.807,2244.3C22.943,2243.12 21.615,2242.52 19.823,2242.52C18.223,2242.52 16.575,2243.02 14.879,2244.01C13.183,2245 11.599,2246.27 10.127,2247.8L10.127,2293.4L3.119,2293.4ZM179.279,2293.4L179.279,2237.92L186.383,2237.92L186.383,2245.5C188.175,2242.56 190.223,2240.46 192.527,2239.21C194.831,2237.96 197.039,2237.34 199.151,2237.34L199.727,2237.34C199.919,2237.34 200.143,2237.37 200.399,2237.44L200.399,2244.92C199.951,2244.73 199.407,2244.59 198.767,2244.49C198.127,2244.4 197.519,2244.35 196.943,2244.35C194.767,2244.35 192.799,2244.86 191.039,2245.88C189.279,2246.91 187.727,2248.54 186.383,2250.78L186.383,2293.4L179.279,2293.4ZM329.124,2246.31L327.971,2246.59L326.857,2246.89L325.802,2247.18L324.837,2247.47L324.292,2247.64L323.67,2247.84L322.907,2248.09L322.228,2248.33L321.602,2248.56L320.993,2248.78L320.394,2249.02C316.185,2250.7 312.362,2252.88 309.945,2255.88C303.831,2263.47 303.131,2270.13 301.73,2276.19C300.786,2280.27 299.608,2284.14 296.943,2287.88C299.864,2287.18 302.83,2286.29 305.615,2285.18C309.794,2283.51 313.577,2281.37 315.955,2278.41L316.401,2277.85L316.925,2277.15L317.092,2276.93L317.477,2276.39L317.858,2275.83C320.796,2271.45 322.065,2267.39 322.979,2263.59C324.486,2257.35 325.24,2251.7 329.124,2246.31ZM271.79,2246.31L270.638,2246.59L269.524,2246.89L268.468,2247.18L267.504,2247.47L266.959,2247.64L266.337,2247.84L265.574,2248.09L264.895,2248.33L264.269,2248.56L263.66,2248.78L263.061,2249.02C258.852,2250.7 255.029,2252.88 252.611,2255.88C246.497,2263.47 245.798,2270.13 244.397,2276.19C243.452,2280.27 242.275,2284.14 239.61,2287.88C242.53,2287.18 245.496,2286.29 248.282,2285.18C252.46,2283.51 256.244,2281.37 258.622,2278.41L259.067,2277.85L259.592,2277.15L259.759,2276.93L260.143,2276.39L260.525,2275.83C263.463,2271.45 264.732,2267.39 265.645,2263.59C267.153,2257.35 267.907,2251.7 271.79,2246.31ZM105.124,2246.31L103.971,2246.59L102.857,2246.89L101.802,2247.18L100.837,2247.47L100.292,2247.64L99.67,2247.84L98.907,2248.09L98.228,2248.33L97.602,2248.56L96.993,2248.78L96.394,2249.02C92.185,2250.7 88.362,2252.88 85.945,2255.88C79.831,2263.47 79.131,2270.13 77.73,2276.19C76.786,2280.27 75.608,2284.14 72.943,2287.88C75.864,2287.18 78.83,2286.29 81.615,2285.18C85.794,2283.51 89.577,2281.37 91.955,2278.41L92.401,2277.85L92.925,2277.15L93.092,2276.93L93.477,2276.39L93.858,2275.83C96.796,2271.45 98.065,2267.39 98.979,2263.59C100.486,2257.35 101.24,2251.7 105.124,2246.31ZM213.071,2260.96L228.623,2260.96L228.623,2256.35C228.623,2253.4 228.463,2250.89 228.143,2248.81C227.823,2246.73 227.135,2245.13 226.079,2244.01C225.023,2242.89 223.343,2242.33 221.039,2242.33C219.119,2242.33 217.567,2242.75 216.383,2243.58C215.199,2244.41 214.351,2245.9 213.839,2248.04C213.327,2250.19 213.071,2253.24 213.071,2257.21L213.071,2260.96ZM146.831,2260.96L162.383,2260.96L162.383,2256.35C162.383,2253.4 162.223,2250.89 161.903,2248.81C161.583,2246.73 160.895,2245.13 159.839,2244.01C158.783,2242.89 157.103,2242.33 154.799,2242.33C152.879,2242.33 151.327,2242.75 150.143,2243.58C148.959,2244.41 148.111,2245.9 147.599,2248.04C147.087,2250.19 146.831,2253.24 146.831,2257.21L146.831,2260.96ZM152.687,2233.31L158.735,2214.49L165.743,2214.49L156.335,2233.31L152.687,2233.31ZM280.655,2230.24L280.655,2220.73L287.663,2220.73L287.663,2230.24L280.655,2230.24Z" style="fill:rgb(160,219,169);fill-rule:nonzero;"/>
                <clipPath id="_clip1">
                    <path d="M117.167,2237.36L117.167,2220.73L124.175,2220.73L124.175,2237.92L133.391,2237.92L133.391,2242.52L124.175,2242.52L124.175,2281.21C124.175,2283.9 124.479,2285.8 125.087,2286.92C125.695,2288.04 127.023,2288.6 129.071,2288.6C129.647,2288.6 130.303,2288.56 131.039,2288.46C131.775,2288.36 132.463,2288.25 133.103,2288.12L133.103,2293.5C132.143,2293.69 131.151,2293.84 130.127,2293.93C129.103,2294.03 128.111,2294.08 127.151,2294.08C124.463,2294.08 122.399,2293.55 120.959,2292.49C119.519,2291.44 118.527,2290 117.983,2288.17C117.439,2286.35 117.167,2284.25 117.167,2281.88L117.167,2244.53C107.86,2250.84 107.606,2257.5 105.835,2265.02L105.696,2265.59C104.555,2270.25 102.893,2275.22 99.06,2280.62L98.785,2281L98.378,2281.55L98.072,2281.96L97.407,2282.8C94.347,2286.6 89.588,2289.53 84.21,2291.68C77.508,2294.36 69.852,2295.85 63.9,2296.66C63.756,2296.71 63.601,2296.75 63.436,2296.79C63.268,2296.83 61.82,2296.99 61.82,2296.99L61.519,2297C60.562,2297.01 59.664,2296.62 59.014,2295.96L58.703,2297.34C58.191,2299.71 57.279,2301.61 55.967,2303.05C54.655,2304.49 52.927,2305.55 50.783,2306.22C48.639,2306.89 45.999,2307.23 42.863,2307.23L41.039,2307.23L41.039,2301.76C44.239,2301.76 46.655,2301.52 48.287,2301.04C49.919,2300.56 51.007,2299.88 51.551,2299.02C52.095,2298.16 52.367,2297.15 52.367,2296C52.367,2294.97 52.175,2293.63 51.791,2291.96C51.407,2290.3 50.991,2288.57 50.543,2286.78L39.119,2237.92L46.127,2237.92L55.727,2285.15L65.039,2237.92L72.143,2237.92L60.344,2290.08C67.815,2285.19 69.629,2280.15 70.91,2274.61C72.511,2267.69 73.508,2260.16 80.492,2251.49C83.596,2247.63 88.395,2244.68 93.799,2242.52C99.177,2240.37 105.147,2238.99 110.351,2238.12L110.351,2237.92L111.648,2237.92C113.231,2237.67 114.728,2237.47 116.097,2237.31L116.5,2237.29L116.631,2237.29L117.149,2237.35L117.167,2237.36ZM224.702,2294C223.58,2294.18 222.359,2294.27 221.039,2294.27C217.583,2294.27 214.751,2293.58 212.543,2292.2C210.335,2290.83 208.703,2288.54 207.647,2285.34C206.591,2282.14 206.063,2277.88 206.063,2272.57L206.063,2258.56C206.063,2253.05 206.607,2248.75 207.695,2245.64C208.783,2242.54 210.447,2240.33 212.687,2239.02C214.927,2237.71 217.743,2237.05 221.135,2237.05C225.039,2237.05 228.015,2237.88 230.063,2239.55C232.111,2241.21 233.535,2243.72 234.335,2247.08C235.135,2250.44 235.535,2254.75 235.535,2260L235.535,2264.99L213.071,2264.99L213.071,2274.68C213.071,2278.27 213.343,2281.1 213.887,2283.18C214.431,2285.26 215.295,2286.75 216.479,2287.64C217.663,2288.54 219.183,2288.99 221.039,2288.99C222.447,2288.99 223.727,2288.72 224.879,2288.17C226.031,2287.63 226.943,2286.57 227.615,2285C228.287,2283.44 228.623,2281.21 228.623,2278.33L228.623,2274.49L235.439,2274.49L235.439,2277.56C235.439,2278.97 235.358,2280.3 235.196,2281.56C236.367,2279.32 237.022,2277.01 237.577,2274.61C239.178,2267.69 240.174,2260.16 247.159,2251.49C250.263,2247.63 255.062,2244.68 260.465,2242.52C267.977,2239.52 276.646,2238.02 282.764,2237.31L283.167,2237.29L283.298,2237.29L283.816,2237.35L284.235,2237.46L284.718,2237.65L285.113,2237.88L285.157,2237.92L287.663,2237.92L287.663,2287.6C292.411,2283.48 293.845,2279.22 294.91,2274.61C296.511,2267.69 297.508,2260.16 304.492,2251.49C307.596,2247.63 312.395,2244.68 317.799,2242.52C325.311,2239.52 333.979,2238.02 340.097,2237.31L340.5,2237.29L340.631,2237.29L341.149,2237.35L341.569,2237.46L342.051,2237.65L342.446,2237.88L342.785,2238.14L343.131,2238.48L343.437,2238.89L343.701,2239.37L343.825,2239.7L343.946,2240.18L343.998,2240.66L343.974,2241.21L343.904,2241.61L343.749,2242.09L343.565,2242.48L343.261,2242.94L342.945,2243.3L342.511,2243.66L341.819,2244.1C331.871,2250.54 331.647,2257.33 329.835,2265.02L329.696,2265.59C328.555,2270.25 326.893,2275.22 323.06,2280.62L322.785,2281L322.378,2281.55L322.072,2281.96L321.407,2282.8C318.347,2286.6 313.588,2289.53 308.21,2291.68C301.508,2294.36 293.852,2295.85 287.9,2296.66C287.756,2296.71 287.601,2296.75 287.436,2296.79C287.268,2296.83 285.82,2296.99 285.82,2296.99L285.519,2297C284.022,2297.01 282.668,2296.06 282.183,2294.62C282.048,2294.22 281.99,2293.81 282.001,2293.4L280.655,2293.4L280.655,2247C274.436,2252.58 274.044,2258.47 272.501,2265.02L272.363,2265.59C271.222,2270.25 269.56,2275.22 265.727,2280.62L265.451,2281L265.045,2281.55L264.738,2281.96L264.074,2282.8C261.013,2286.6 256.254,2289.53 250.876,2291.68C244.174,2294.36 236.519,2295.85 230.567,2296.66C230.422,2296.71 230.268,2296.75 230.103,2296.79C229.935,2296.83 228.487,2296.99 228.487,2296.99L228.186,2297C226.688,2297.01 225.335,2296.06 224.85,2294.62C224.781,2294.41 224.732,2294.21 224.702,2294ZM154.799,2294.27C151.343,2294.27 148.511,2293.58 146.303,2292.2C144.095,2290.83 142.463,2288.54 141.407,2285.34C140.351,2282.14 139.823,2277.88 139.823,2272.57L139.823,2258.56C139.823,2253.05 140.367,2248.75 141.455,2245.64C142.543,2242.54 144.207,2240.33 146.447,2239.02C148.687,2237.71 151.503,2237.05 154.895,2237.05C158.799,2237.05 161.775,2237.88 163.823,2239.55C165.871,2241.21 167.295,2243.72 168.095,2247.08C168.895,2250.44 169.295,2254.75 169.295,2260L169.295,2264.99L146.831,2264.99L146.831,2274.68C146.831,2278.27 147.103,2281.1 147.647,2283.18C148.191,2285.26 149.055,2286.75 150.239,2287.64C151.423,2288.54 152.943,2288.99 154.799,2288.99C156.207,2288.99 157.487,2288.72 158.639,2288.17C159.791,2287.63 160.703,2286.57 161.375,2285C162.047,2283.44 162.383,2281.21 162.383,2278.33L162.383,2274.49L169.199,2274.49L169.199,2277.56C169.199,2282.62 168.159,2286.67 166.079,2289.71C163.999,2292.75 160.239,2294.27 154.799,2294.27ZM3.119,2293.4L3.119,2215.64L10.127,2215.64L10.127,2243.77C11.983,2241.79 14.031,2240.17 16.271,2238.92C18.511,2237.68 20.975,2237.05 23.663,2237.05C25.519,2237.05 27.071,2237.52 28.319,2238.44C29.567,2239.37 30.527,2240.72 31.199,2242.48C31.871,2244.24 32.207,2246.36 32.207,2248.86L32.207,2293.4L25.103,2293.4L25.103,2250.4C25.103,2247.52 24.671,2245.48 23.807,2244.3C22.943,2243.12 21.615,2242.52 19.823,2242.52C18.223,2242.52 16.575,2243.02 14.879,2244.01C13.183,2245 11.599,2246.27 10.127,2247.8L10.127,2293.4L3.119,2293.4ZM179.279,2293.4L179.279,2237.92L186.383,2237.92L186.383,2245.5C188.175,2242.56 190.223,2240.46 192.527,2239.21C194.831,2237.96 197.039,2237.34 199.151,2237.34L199.727,2237.34C199.919,2237.34 200.143,2237.37 200.399,2237.44L200.399,2244.92C199.951,2244.73 199.407,2244.59 198.767,2244.49C198.127,2244.4 197.519,2244.35 196.943,2244.35C194.767,2244.35 192.799,2244.86 191.039,2245.88C189.279,2246.91 187.727,2248.54 186.383,2250.78L186.383,2293.4L179.279,2293.4ZM329.124,2246.31L327.971,2246.59L326.857,2246.89L325.802,2247.18L324.837,2247.47L324.292,2247.64L323.67,2247.84L322.907,2248.09L322.228,2248.33L321.602,2248.56L320.993,2248.78L320.394,2249.02C316.185,2250.7 312.362,2252.88 309.945,2255.88C303.831,2263.47 303.131,2270.13 301.73,2276.19C300.786,2280.27 299.608,2284.14 296.943,2287.88C299.864,2287.18 302.83,2286.29 305.615,2285.18C309.794,2283.51 313.577,2281.37 315.955,2278.41L316.401,2277.85L316.925,2277.15L317.092,2276.93L317.477,2276.39L317.858,2275.83C320.796,2271.45 322.065,2267.39 322.979,2263.59C324.486,2257.35 325.24,2251.7 329.124,2246.31ZM271.79,2246.31L270.638,2246.59L269.524,2246.89L268.468,2247.18L267.504,2247.47L266.959,2247.64L266.337,2247.84L265.574,2248.09L264.895,2248.33L264.269,2248.56L263.66,2248.78L263.061,2249.02C258.852,2250.7 255.029,2252.88 252.611,2255.88C246.497,2263.47 245.798,2270.13 244.397,2276.19C243.452,2280.27 242.275,2284.14 239.61,2287.88C242.53,2287.18 245.496,2286.29 248.282,2285.18C252.46,2283.51 256.244,2281.37 258.622,2278.41L259.067,2277.85L259.592,2277.15L259.759,2276.93L260.143,2276.39L260.525,2275.83C263.463,2271.45 264.732,2267.39 265.645,2263.59C267.153,2257.35 267.907,2251.7 271.79,2246.31ZM105.124,2246.31L103.971,2246.59L102.857,2246.89L101.802,2247.18L100.837,2247.47L100.292,2247.64L99.67,2247.84L98.907,2248.09L98.228,2248.33L97.602,2248.56L96.993,2248.78L96.394,2249.02C92.185,2250.7 88.362,2252.88 85.945,2255.88C79.831,2263.47 79.131,2270.13 77.73,2276.19C76.786,2280.27 75.608,2284.14 72.943,2287.88C75.864,2287.18 78.83,2286.29 81.615,2285.18C85.794,2283.51 89.577,2281.37 91.955,2278.41L92.401,2277.85L92.925,2277.15L93.092,2276.93L93.477,2276.39L93.858,2275.83C96.796,2271.45 98.065,2267.39 98.979,2263.59C100.486,2257.35 101.24,2251.7 105.124,2246.31ZM213.071,2260.96L228.623,2260.96L228.623,2256.35C228.623,2253.4 228.463,2250.89 228.143,2248.81C227.823,2246.73 227.135,2245.13 226.079,2244.01C225.023,2242.89 223.343,2242.33 221.039,2242.33C219.119,2242.33 217.567,2242.75 216.383,2243.58C215.199,2244.41 214.351,2245.9 213.839,2248.04C213.327,2250.19 213.071,2253.24 213.071,2257.21L213.071,2260.96ZM146.831,2260.96L162.383,2260.96L162.383,2256.35C162.383,2253.4 162.223,2250.89 161.903,2248.81C161.583,2246.73 160.895,2245.13 159.839,2244.01C158.783,2242.89 157.103,2242.33 154.799,2242.33C152.879,2242.33 151.327,2242.75 150.143,2243.58C148.959,2244.41 148.111,2245.9 147.599,2248.04C147.087,2250.19 146.831,2253.24 146.831,2257.21L146.831,2260.96ZM152.687,2233.31L158.735,2214.49L165.743,2214.49L156.335,2233.31L152.687,2233.31ZM280.655,2230.24L280.655,2220.73L287.663,2220.73L287.663,2230.24L280.655,2230.24Z" clip-rule="nonzero"/>
                </clipPath>
                <g clip-path="url(#_clip1)">
                    <g transform="matrix(1,0,0,1,-570.333,-1152)">
                        <path d="M704,3361C704,3361 651.665,3363.44 648,3457C644.335,3550.56 811,3451 811,3451L843,3379L704,3361Z" style="fill:rgb(0,160,113);"/>
                    </g>
                    <g transform="matrix(1,0,0,1,-413,-1148.67)">
                        <path d="M704,3361C704,3361 683.665,3348.44 649,3460C621.216,3549.41 804,3461 804,3461L824,3376L704,3361Z" style="fill:rgb(248,234,138);"/>
                    </g>
                </g>
            </g>
            <g transform="matrix(0.224878,0,0,0.743421,-1182.37,52.7722)">
                <g transform="matrix(0.263254,0,0,0.263254,-691.332,1896)">
                    <path d="M586.007,2555.79C462.089,2589.85 342.632,2617.76 274,2703C143.728,2864.79 255.467,2985.21 50.403,3068.61C50.403,3068.61 76.383,3066.22 50.646,3067.94C148.687,3056.23 320.397,3054.74 388,2970.79C518.272,2809 403.735,2669.58 586.007,2555.79Z" style="fill:rgb(245,223,78);"/>
                </g>
                <g transform="matrix(0.263254,0,0,0.263254,-718.332,1877)">
                    <path d="M605,2574.79C507.673,2586.05 342.632,2617.76 274,2703C143.728,2864.79 247.869,2989.01 46.604,3076.21C46.604,3076.21 72.584,3073.82 46.847,3075.53C144.888,3063.83 320.397,3054.74 388,2970.79C518.272,2809 422.728,2688.57 605,2574.79Z" style="fill:rgb(160,219,169);"/>
                </g>
                <g transform="matrix(0.263254,0,0,0.263254,-702.832,1884.5)">
                    <path d="M589.806,2551.99C469.687,2593.65 342.632,2617.76 274,2703C143.728,2864.79 255.467,2970.02 46.604,3068.61C46.604,3068.61 72.584,3066.22 46.847,3067.94C144.888,3056.23 320.397,3054.74 388,2970.79C518.272,2809 407.533,2665.78 589.806,2551.99Z" style="fill:rgb(0,160,113);"/>
                </g>
            </g>
            <g transform="matrix(0.0592001,0,0,0.195709,-1341.64,1446.9)">
                <path d="M-0.878,3070.51C181.394,2956.72 84.849,2836.3 215.122,2674.51C283.754,2589.28 448.794,2557.57 546.122,2546.3C363.849,2660.08 459.394,2780.51 329.122,2942.3C284.793,2997.35 204.396,3027.96 122.914,3047.23C106.412,3064.71 85.344,3081.93 58,3099C58,3099 83.98,3096.61 58.243,3098.33C156.284,3086.62 320.397,3054.74 388,2970.79C518.272,2809 422.728,2688.57 605,2574.79C507.673,2586.05 342.632,2617.76 274,2703C180.138,2819.57 204.023,2914.66 156.531,3001.28" style="fill:none;stroke:black;stroke-width:28.7px;stroke-dasharray:574.08,57.41,0,0;"/>
            </g>
            <g transform="matrix(0.0592001,0,0,0.195709,-1339.05,1455.45)">
                <path d="M134.532,3033.64C116.842,3054.74 90.802,3078.52 58,3099C58,3099 83.98,3096.61 58.243,3098.33C156.284,3086.62 320.397,3054.74 388,2970.79C518.272,2809 422.728,2688.57 605,2574.79C507.673,2586.05 342.632,2617.76 274,2703C187.022,2811.02 197.354,2893 162.104,2974.48" style="fill:none;stroke:black;stroke-width:28.7px;stroke-dasharray:574.08,57.41,0,0;"/>
            </g>
        </g>
    </g>
</svg>
