<?xml version="1.0" encoding="UTF-8" standalone="no"?>
<!DOCTYPE svg PUBLIC "-//W3C//DTD SVG 1.1//EN" "http://www.w3.org/Graphics/SVG/1.1/DTD/svg11.dtd">
<svg width="100%" height="100%" viewBox="0 0 191 192" version="1.1" xmlns="http://www.w3.org/2000/svg" xmlns:xlink="http://www.w3.org/1999/xlink" xml:space="preserve" xmlns:serif="http://www.serif.com/" style="fill-rule:evenodd;clip-rule:evenodd;stroke-linecap:round;stroke-linejoin:round;stroke-miterlimit:1.5;">
    <g transform="matrix(1,0,0,1,-33,-2925)">
        <g id="Plan-de-travail5" serif:id="Plan de travail5" transform="matrix(1,0,0,1,1382,1015.11)">
            <rect x="-1349" y="1910" width="191" height="191" style="fill:none;"/>
            <g transform="matrix(1,0,0,1,-629,-615.11)">
                <g transform="matrix(0.263254,0,0,0.263254,-691.332,1896)">
                    <path d="M586.007,2555.79C462.089,2589.85 342.632,2617.76 274,2703C143.728,2864.79 255.467,2985.21 50.403,3068.61C50.403,3068.61 76.383,3066.22 50.646,3067.94C148.687,3056.23 320.397,3054.74 388,2970.79C518.272,2809 403.735,2669.58 586.007,2555.79Z" style="fill:rgb(245,223,78);"/>
                </g>
                <g transform="matrix(0.263254,0,0,0.263254,-718.332,1877)">
                    <path d="M605,2574.79C507.673,2586.05 342.632,2617.76 274,2703C143.728,2864.79 247.869,2989.01 46.604,3076.21C46.604,3076.21 72.584,3073.82 46.847,3075.53C144.888,3063.83 320.397,3054.74 388,2970.79C518.272,2809 422.728,2688.57 605,2574.79Z" style="fill:rgb(160,219,169);"/>
                </g>
                <g transform="matrix(0.263254,0,0,0.263254,-702.832,1884.5)">
                    <path d="M589.806,2551.99C469.687,2593.65 342.632,2617.76 274,2703C143.728,2864.79 255.467,2970.02 46.604,3068.61C46.604,3068.61 72.584,3066.22 46.847,3067.94C144.888,3056.23 320.397,3054.74 388,2970.79C518.272,2809 407.533,2665.78 589.806,2551.99Z" style="fill:rgb(0,160,113);"/>
                </g>
            </g>
            <g transform="matrix(0.263254,0,0,0.263254,-1337.27,1260.18)">
                <path d="M-0.878,3070.51C181.394,2956.72 84.849,2836.3 215.122,2674.51C283.754,2589.28 448.794,2557.57 546.122,2546.3C363.849,2660.08 459.394,2780.51 329.122,2942.3C284.793,2997.35 204.396,3027.96 122.914,3047.23C106.412,3064.71 85.344,3081.93 58,3099C58,3099 83.98,3096.61 58.243,3098.33C156.284,3086.62 320.397,3054.74 388,2970.79C518.272,2809 422.728,2688.57 605,2574.79C507.673,2586.05 342.632,2617.76 274,2703C180.138,2819.57 204.023,2914.66 156.531,3001.28" style="fill:none;stroke:black;stroke-width:26.59px;stroke-dasharray:531.81,53.18,0,0;"/>
            </g>
            <g transform="matrix(0.263254,0,0,0.263254,-1325.77,1271.68)">
                <path d="M134.532,3033.64C116.842,3054.74 90.802,3078.52 58,3099C58,3099 83.98,3096.61 58.243,3098.33C156.284,3086.62 320.397,3054.74 388,2970.79C518.272,2809 422.728,2688.57 605,2574.79C507.673,2586.05 342.632,2617.76 274,2703C187.022,2811.02 197.354,2893 162.104,2974.48" style="fill:none;stroke:black;stroke-width:26.59px;stroke-dasharray:531.81,53.18,0,0;"/>
            </g>
        </g>
    </g>
</svg>
