<?xml version="1.0" encoding="UTF-8" standalone="no"?>
<!DOCTYPE svg PUBLIC "-//W3C//DTD SVG 1.1//EN" "http://www.w3.org/Graphics/SVG/1.1/DTD/svg11.dtd">
<svg width="100%" height="100%" viewBox="0 0 150 151" version="1.1" xmlns="http://www.w3.org/2000/svg" xmlns:xlink="http://www.w3.org/1999/xlink" xml:space="preserve" xmlns:serif="http://www.serif.com/" style="fill-rule:evenodd;clip-rule:evenodd;stroke-linecap:round;stroke-linejoin:round;stroke-miterlimit:1.5;">
    <g transform="matrix(1,0,0,1,-1380,-2921)">
        <g id="Plan-de-travail1" serif:id="Plan de travail1" transform="matrix(1.12782,0,0,1.12782,-7605.34,2253.83)">
            <rect x="7967" y="592" width="133" height="133" style="fill:none;"/>
            <g transform="matrix(0.886667,0,0,0.886667,568.653,411.12)">
                <g transform="matrix(0.33906,0,0,0.33906,8236.61,-48.513)">
                    <path d="M627,1151.5C627,1147.36 623.639,1144 619.5,1144L465.5,1144C461.361,1144 458,1147.36 458,1151.5L458,1166.5C458,1170.64 461.361,1174 465.5,1174L619.5,1174C623.639,1174 627,1170.64 627,1166.5L627,1151.5Z" style="fill:rgb(160,219,169);"/>
                </g>
                <g transform="matrix(0.318741,0,0,0.318741,8234.47,226.254)">
                    <path d="M631.627,180.623C683.837,129.599 678.394,84.66 678.394,84.66L620.005,102.499C620.005,102.499 648.807,74.933 689.877,50.748C730.947,26.564 454.361,37.291 437.75,260.861C441.478,260.861 441.55,261.293 458.339,257.364" style="fill:rgb(245,223,78);"/>
                </g>
                <g transform="matrix(0.516444,0,0,0.516444,8158.98,-259.344)">
                    <path d="M562,1162C557.403,1112.85 533,1093 533,1093L533,1069L481,1069L481,1093C481,1093 456.597,1112.85 452,1162" style="fill:rgb(0,160,113);"/>
                </g>
                <g transform="matrix(0.516444,0,0,0.516444,8158.15,-263.115)">
                    <circle cx="504" cy="1134" r="16" style="fill:rgb(160,219,169);"/>
                </g>
                <g transform="matrix(0.23759,0,0,0.266197,8292.7,-20.4069)">
                    <path d="M627,1159C627,1150.72 619.469,1144 610.194,1144L474.806,1144C465.531,1144 458,1150.72 458,1159C458,1167.28 465.531,1174 474.806,1174L610.194,1174C619.469,1174 627,1167.28 627,1159Z" style="fill:rgb(160,219,169);"/>
                </g>
                <g transform="matrix(0.358548,0,0,0.358548,8212.56,211.277)">
                    <path d="M395.648,379C395.648,379 438.93,246.184 514,180" style="fill:none;stroke:black;stroke-width:16.73px;"/>
                </g>
                <g transform="matrix(0.318741,0,0,0.318741,8230.02,222.689)">
                    <path d="M458.339,268.548C475.289,261.395 508.415,249.256 542.343,234.041" style="fill:none;stroke:black;stroke-width:18.82px;stroke-dasharray:376.48,37.65,0,0;"/>
                </g>
                <g transform="matrix(0.318741,0,0,0.318741,8230.02,222.689)">
                    <path d="M631.627,180.623C683.837,129.599 678.394,84.66 678.394,84.66L620.005,102.499C620.005,102.499 648.807,74.933 689.877,50.748C730.947,26.564 443.177,33.563 437.75,279.5C437.75,279.5 441.55,272.477 458.339,268.548" style="fill:none;stroke:black;stroke-width:18.82px;stroke-dasharray:376.48,37.65,0,0;"/>
                </g>
                <g transform="matrix(0.516444,0,0,0.516444,8155.41,-261.721)">
                    <path d="M562,1162C557.403,1112.85 533,1093 533,1093L533,1069L481,1069L481,1093C481,1093 456.597,1112.85 452,1162" style="fill:none;stroke:black;stroke-width:11.62px;stroke-dasharray:232.36,23.24,0,0;"/>
                </g>
                <g transform="matrix(0.516444,0,0,0.516444,8156.96,-264.303)">
                    <circle cx="504" cy="1134" r="16" style="fill:none;stroke:black;stroke-width:11.62px;stroke-dasharray:232.36,23.24,0,0;"/>
                </g>
                <g transform="matrix(0.33906,0,0,0.33906,8233.04,-50.8895)">
                    <path d="M627,1151.5C627,1147.36 623.639,1144 619.5,1144L465.5,1144C461.361,1144 458,1147.36 458,1151.5L458,1166.5C458,1170.64 461.361,1174 465.5,1174L619.5,1174C623.639,1174 627,1170.64 627,1166.5L627,1151.5Z" style="fill:none;stroke:black;stroke-width:17.7px;stroke-dasharray:353.92,35.39,0,0;"/>
                </g>
                <g transform="matrix(0.23759,0,0,0.266197,8289.13,-22.7833)">
                    <path d="M627,1159C627,1150.72 619.469,1144 610.194,1144L474.806,1144C465.531,1144 458,1150.72 458,1159C458,1167.28 465.531,1174 474.806,1174L610.194,1174C619.469,1174 627,1167.28 627,1159Z" style="fill:none;stroke:black;stroke-width:23.78px;stroke-dasharray:475.63,47.56,0,0;"/>
                </g>
            </g>
        </g>
    </g>
</svg>
