<?xml version="1.0" encoding="UTF-8" standalone="no"?><!DOCTYPE svg PUBLIC "-//W3C//DTD SVG 1.1//EN" "http://www.w3.org/Graphics/SVG/1.1/DTD/svg11.dtd"><svg width="100%" height="100%" viewBox="0 0 1580 1080" version="1.1" xmlns="http://www.w3.org/2000/svg" xmlns:xlink="http://www.w3.org/1999/xlink" xml:space="preserve" xmlns:serif="http://www.serif.com/" style="fill-rule:evenodd;clip-rule:evenodd;stroke-linecap:round;stroke-linejoin:round;stroke-miterlimit:1.5;"><rect id="Plan-de-travail1" serif:id="Plan de travail1" x="0" y="0" width="1580" height="1080" style="fill:none;"/><clipPath id="_clip1"><rect x="0" y="0" width="1580" height="1080"/></clipPath><g clip-path="url(#_clip1)"><path d="M446.473,894.427c0.586,-12.023 38.978,-138.795 110.356,-250.584c2.944,-4.611 4.33,-19.754 11.748,-21.917c7.418,-2.164 17.996,12.65 32.76,8.934c14.763,-3.716 -5.829,25.308 -13.402,47.65c-7.573,22.343 -46.034,177.194 -51.373,198.048c-5.339,20.853 -18.486,64.023 -16.38,88.6c2.106,24.576 -14.764,113.163 -10.424,131.039c4.34,17.875 3.723,26.803 3.723,26.803l-131.783,-17.124c-0,-0 28.42,-53.614 28.292,-77.432c-0.127,-23.819 -8.807,-71.483 -8.934,-80.411" style="fill:#a0dba9;"/><path d="M304.457,904.629c-3.091,-2.79 -5.229,-5.839 -5.393,-9.202c-0.587,-12.023 -38.979,-138.795 -110.357,-250.584c-2.944,-4.611 -4.33,-19.754 -11.748,-21.917c-7.418,-2.164 -17.996,12.65 -32.759,8.934c-14.764,-3.716 5.828,25.308 13.401,47.65c7.573,22.343 46.034,177.194 51.373,198.048c5.34,20.853 18.487,64.023 16.38,88.6c-2.106,24.576 14.764,113.163 10.424,131.039c-4.34,17.875 -3.723,26.803 -3.723,26.803l115.404,-8.19c-0,0 -1.617,-49.146 -1.489,-72.965c0.127,-23.818 -0.128,-86.373 -0,-95.301" style="fill:#a0dba9;"/><path d="M345.933,899.375c-0.899,1.305 -3.559,21.542 -1.913,28.486c1.462,6.169 6.588,10.896 1.217,15.216c-3.755,3.02 -39.305,-7.761 -36.482,-34.993c1.533,-14.787 8.595,-27.404 18.452,-36.054" style="fill:#a0dba9;"/><path d="M421.036,867.397c14.502,7.999 21.967,21.054 22.48,28.774c0.962,14.462 -26.276,48.08 -36.482,49.14c-10.207,1.06 -9.524,-6.644 -2.234,-17.125c1.16,-1.667 -3.264,-9.644 -1.731,-11.941c1.163,-1.742 -1.586,-5.078 -0.882,-23.557" style="fill:#a0dba9;"/><path d="M322.808,830.618c3.037,28.945 13.997,76.691 53.211,78.721c40.388,2.091 50.423,-45.724 52.865,-73.077c-0,-0 -33.342,-28.019 -57.884,-28.262c-24.542,-0.243 -47.791,11.91 -50,13c-2.209,1.09 0.474,-3.09 1.808,9.618Z" style="fill:#634844;"/><path d="M344.607,893.471c0,-0 3.418,29.547 -0.607,33.529c-4.025,3.982 2.775,10.518 1,12c-1.775,1.482 -7.975,6.518 0,10c7.975,3.482 29.475,9.672 51,2c11.975,-4.268 -2,-10 -2,-10c0,0 0.025,-6.232 4,-11c3.975,-4.768 7,-13 7,-13c0,0 -0.725,-17.232 -1,-21c-0.275,-3.768 -3,-8 -3,-8l-56.393,5.471Z" style="fill:#634844;"/><path d="M320.178,832.652c0,-0 27.331,-24.886 64.031,-17.869c36.699,7.016 44.672,20.847 44.672,20.847c-0,-0 9.462,-0.688 8.934,-8.19c-0.527,-7.502 2.762,-93.755 -64.774,-87.856c-67.536,5.9 -63.876,80.467 -61.053,89.345c2.823,8.878 8.19,3.723 8.19,3.723Z" style="fill:#a0dba9;"/><path d="M1420,729c0,0 8.841,100.241 -22,111c-30.841,10.759 -22,2 -22,2c0,0 3.841,29.741 13,32c9.159,2.259 13.841,10.741 9,17c-4.841,6.259 -56.659,17.241 -74,-1c-17.341,-18.241 -12.295,-53.711 -9,-80c1.659,-13.241 -12,-9 -12,-9c0,0 -21.659,-16.259 -22,-27c-0.341,-10.741 7.341,-28.259 20,-20c12.659,8.259 11,19 11,19l9,-3c0,0 -6.159,-31.759 -3,-39c3.159,-7.241 6.341,-31.759 15,-33c8.659,-1.241 12.841,4.741 21,4c8.159,-0.741 7.841,-11.259 14,1c6.159,12.259 8.341,29.741 14,23c5.659,-6.741 0.841,-15.759 8,-17c7.159,-1.241 11.841,-3.259 20,2c8.159,5.259 7.841,12.741 10,18Z" style="fill:#dfd6d1;"/><g><path d="M445.473,893.427c0.586,-12.023 38.978,-138.795 110.356,-250.584c2.944,-4.611 4.33,-19.754 11.748,-21.917c7.418,-2.164 17.996,12.65 32.76,8.934c14.763,-3.716 -5.829,25.308 -13.402,47.65c-7.573,22.343 -46.034,177.194 -51.373,198.048c-5.339,20.853 -18.486,64.023 -16.38,88.6c2.106,24.576 -14.764,113.163 -10.424,131.039c4.34,17.875 3.723,26.803 3.723,26.803l-131.783,-17.124c-0,-0 28.42,-53.614 28.292,-77.432c-0.127,-23.819 -8.807,-71.483 -8.934,-80.411" style="fill:none;stroke:#000;stroke-width:10px;stroke-dasharray:400,20,0,0;"/><path d="M300.457,902.629c-3.091,-2.79 -5.229,-5.839 -5.393,-9.202c-0.587,-12.023 -38.979,-138.795 -110.357,-250.584c-2.944,-4.611 -4.33,-19.754 -11.748,-21.917c-7.418,-2.164 -17.996,12.65 -32.759,8.934c-14.764,-3.716 5.828,25.308 13.401,47.65c7.573,22.343 46.034,177.194 51.373,198.048c5.34,20.853 18.487,64.023 16.38,88.6c-2.106,24.576 14.764,113.163 10.424,131.039c-4.34,17.875 -3.723,26.803 -3.723,26.803l115.404,-8.19c-0,0 -1.617,-49.146 -1.489,-72.965c0.127,-23.818 -0.128,-86.373 -0,-95.301" style="fill:none;stroke:#000;stroke-width:10px;stroke-dasharray:400,20,0,0;"/><path d="M336.933,892.375c-1.697,2.464 -2.988,5.084 -3.886,7.752c-5.367,15.951 19.606,31.767 8.19,40.95c-3.755,3.02 -39.305,-7.761 -36.482,-34.993c1.533,-14.787 8.595,-27.404 18.452,-36.054" style="fill:none;stroke:#000;stroke-width:10px;stroke-dasharray:400,20,0,0;"/><path d="M421.036,867.397c14.502,7.999 17.967,19.054 18.48,26.774c0.962,14.462 -26.276,48.08 -36.482,49.14c-10.207,1.06 -9.524,-6.644 -2.234,-17.125c5.652,-8.125 19.825,-24.572 9.387,-36.498" style="fill:none;stroke:#000;stroke-width:10px;stroke-dasharray:400,20,0,0;"/><path d="M317.808,826.618c3.037,28.945 13.997,76.691 53.211,78.721c40.388,2.091 50.423,-45.724 52.865,-73.077" style="fill:none;stroke:#000;stroke-width:10px;stroke-dasharray:400,20,0,0;"/><path d="M315.178,828.652c0,-0 27.331,-24.886 64.031,-17.869c36.699,7.016 44.672,20.847 44.672,20.847c-0,-0 9.462,-0.688 8.934,-8.19c-0.527,-7.502 2.762,-93.755 -64.774,-87.856c-67.536,5.9 -63.876,80.467 -61.053,89.345c2.823,8.878 8.19,3.723 8.19,3.723Z" style="fill:none;stroke:#000;stroke-width:10px;stroke-dasharray:400,20,0,0;"/><path d="M403.034,828.652c-0,-0 -24.787,-3.294 -24.57,1.489c0.217,4.783 -0.961,19.042 3.723,21.591c4.684,2.55 2.389,10.481 -3.723,11.913c-6.111,1.432 -14.146,0.745 -14.146,0.745" style="fill:none;stroke:#000;stroke-width:10px;stroke-dasharray:400,20,0,0;"/><path d="M336.77,828.652l20.102,-0" style="fill:none;stroke:#000;stroke-width:10px;stroke-dasharray:400,20,0,0;"/><path d="M333.047,949.267c0,0 -11.261,43.923 -3.722,64.775c7.538,20.852 7.352,39.207 2.233,52.118" style="fill:none;stroke:#000;stroke-width:10px;stroke-dasharray:400,20,0,0;"/><path d="M409.523,949.012c-0,-0 5.119,15.878 13.402,38.716c8.283,22.837 12.564,36.228 1.489,49.884c-11.075,13.655 -7.446,31.27 -7.446,31.27" style="fill:none;stroke:#000;stroke-width:10px;stroke-dasharray:400,20,0,0;"/><path d="M344.215,894.916c0,-0 5.119,31.017 -0.744,36.482" style="fill:none;stroke:#000;stroke-width:10px;stroke-dasharray:400,20,0,0;"/><path d="M403.034,894.171c1.853,3.706 -2.94,15.892 -0,24.57" style="fill:none;stroke:#000;stroke-width:10px;stroke-dasharray:400,20,0,0;"/><path d="M342.726,947.033c0,0 15.791,16.933 57.33,2.234" style="fill:none;stroke:#000;stroke-width:10px;stroke-dasharray:400,20,0,0;"/></g><path d="M535.952,677.938c-0,-0 654.054,226.033 660.525,212.552c6.47,-13.482 199.503,-559.332 199.503,-559.332l-659.028,-226.352l-201,573.132Z" style="fill:#fff;"/><path d="M1272.87,654.028l15.092,-41.48" style="fill:none;stroke:#000;stroke-width:10px;stroke-dasharray:400,20,0,0;"/><path d="M1090.11,217.16l-321.277,-110.025" style="fill:none;stroke:#000;stroke-width:10px;stroke-dasharray:400,20,0,0;"/><path d="M1059.09,319.89l-5.089,-90.89l446,-11l30,375l-379.026,24.481" style="fill:#fff;"/><path d="M1395,920c1.78,-4.15 -5.929,-1.853 -6.253,-3.769c-0.71,-4.209 3.614,-9.617 6.253,-13.231c3.841,-5.259 5.659,-25.741 1,-28c-4.659,-2.259 -18.841,-9.241 -21,-18c-2.159,-8.759 -5.841,-10.741 9,-14c14.841,-3.259 33,9 33,9c0,0 71.826,-109.158 82,-130c10.174,-20.842 3,-132 3,-132l21,-5l-1.76,-40.522c15.222,2.858 38.821,11.906 35.76,37.522c-4.309,36.063 2,127 2,127c0,0 -67.024,218.271 -78,234c-10.976,15.729 22.976,116.271 37,138c14.024,21.729 -9.358,26.271 -23,24c-13.642,-2.271 -27.691,-14.396 -38,-42c-10.309,-27.604 -39.024,-63.729 -46,-86c-6.976,-22.271 -21.691,-43.729 -16,-57Z" style="fill:#f5df4e;"/><path d="M535.952,677.938l654.525,202.552l37.602,-103.35" style="fill:none;stroke:#000;stroke-width:10px;stroke-dasharray:400,20,0,0;"/><path d="M1251.33,713.233l7.18,-19.733" style="fill:none;stroke:#000;stroke-width:10px;stroke-dasharray:400,20,0,0;"/><path d="M727,783c0,0 65.967,21.991 120,-25c6.033,8.009 19.967,7.991 21,22c1.033,14.009 47,312 47,312l-221,-4l-16,-259l49,-46Z" style="fill:#fff;"/><path d="M570,110l370,-28l-8,336l-392,38l30,-346Z" style="fill:#fff;"/><path d="M1327,950c-0.642,-6.604 2.826,-4.491 11,-8c8.174,-3.509 -17.507,-55.825 -20,-66c-2.493,-10.175 -2.174,-37.825 -14,-38c-11.826,-0.175 -11,14 -11,14c0,0 -18.507,7.509 -35,8c-16.493,0.491 -78,-90 -78,-90l-33,-154l-45.851,97.319c1.573,27.077 3.103,50.993 2.851,57.681c-0.642,17.063 91.309,162.271 115,179c23.691,16.729 -33.024,129.271 -24,137c9.024,7.729 83.642,16.937 84,11c0.358,-5.937 49.712,-130.403 48,-148Z" style="fill:#f5df4e;"/><path d="M926.687,340.155l-1.687,70.845l-267.233,25.905" style="fill:none;stroke:#000;stroke-width:10px;"/><path d="M620.853,440.484l-87.853,8.516l30,-346l370,-28l-2.013,84.546" style="fill:none;stroke:#000;stroke-width:10px;"/><path d="M576.98,751.373c-0,0 5.846,-5.531 4.02,-20.373c-1.826,-14.842 -36.841,-43.825 -49,-50c-12.159,-6.175 5.493,-44.491 25,-70c19.507,-25.509 19.159,-23.825 19,-53c-0.159,-29.175 1.493,-62.825 35,-93c33.507,-30.175 5.159,-45.825 40,-96c34.841,-50.175 95.248,-50.739 95.248,-50.739l-50.248,-211.261l-677,165l140,591l417.98,-111.627Z" style="fill:#fff;"/><path d="M704.333,936.333c7.334,63 -6.89,121.823 5,157l-177.851,3.632c-0,-0 -41.041,-252.988 18.85,-303.554c59.892,-50.567 43.001,-40.078 43.001,-40.078" style="fill:#00a071;"/><path d="M872.246,121.854c-5.893,-5.511 -15.173,-13.745 -15.718,-18.484c-0.477,-4.154 5.531,-8.523 13.124,-8.267c7.592,0.257 20.393,13.417 25.989,19.904c1.783,2.067 3.255,3.879 4.426,5.499c12.692,6.707 27.93,32.928 29.933,55.494c2.174,24.491 24.826,32.842 31,42c6.174,9.158 48.493,30.842 40,32c-8.493,1.158 -67,55 -67,55c0,0 -35.507,-40.491 -44,-56c-8.493,-15.509 -53.841,-17.491 -66,-18c-12.159,-0.509 -27.174,-56.158 -32,-70c-1.737,-4.982 -1.576,-8.321 -0.658,-10.554l-2.497,-2.185c-3.019,-5.059 -4.593,-8.477 -3.028,-11.445c4.444,-8.429 7.371,-6.191 15.713,-4.818c2.714,0.446 6.659,3.795 11.092,8.412l1.583,-0.552l1.03,-0.358c-0.437,-0.459 -0.883,-0.928 -1.332,-1.401c-0,-0 -9.143,-9.119 -0.992,-16.943c9.719,-9.332 18.592,1.394 22.469,6.012c1.4,1.668 2.648,3.055 3.829,4.302c1.561,-0.502 3.134,-1.002 4.713,-1.499c-5.128,-5.71 -9.302,-12.02 -8.482,-19.179c1.369,-11.944 10.135,-10.781 14.944,-8.251c4.879,2.566 13.072,11.02 20.621,19.623l0.423,-0.107l0.818,-0.203Z" style="fill:#b57f69;"/><path d="M827,388c0,0 -105.493,10.991 -138,81c-32.507,70.009 5.507,167.991 23,202c17.493,34.009 -10,103 -10,103c0,0 42.507,25.991 84,15c41.493,-10.991 66.507,-29.009 72,-58c5.493,-28.991 9.507,-46.009 -16,-57c-25.507,-10.991 -23.493,7.991 -22,-21c1.493,-28.991 -14.493,-82.009 11,-129c14.986,-27.624 27.491,-77.044 21.759,-106.683c-4.019,-20.779 -25.138,-27.26 -25.759,-29.317" style="fill:#b57f69;"/><path d="M706.5,570.5c-16.993,-49.842 2.993,-56.158 19.5,-94.5c16.507,-38.342 52.493,-79.658 84,-77c16.092,1.357 24.396,7.678 31.186,16.157c6.504,8.122 -1.052,46.225 -6.186,55.843c-10.493,19.658 -18.215,114.395 -21,129c-3.403,17.843 8.518,93.254 25,84c17.88,-10.039 55.5,-3.5 55.5,-3.5c0,0 53.724,-47.322 29,-212c-8.335,-55.516 -68,-75 -68,-75c0,0 -16.224,-84.178 -119,-59c-102.776,25.178 -72.224,107.489 -108,146c-35.776,38.511 -40.89,71.489 -37,99c3.89,27.511 -56.557,75.822 -41,109c15.557,33.178 61.776,34.156 44,73c-17.776,38.844 -45.557,189.822 -27,223c18.557,33.178 -15.224,-67.178 53,-121c-13.11,140.844 25.518,132.23 53,157c-4.979,-21.538 33.428,-53.738 53.37,-162.961c12.159,-66.592 -20.283,-80.086 13.63,-130.039c14.716,-21.677 -9.824,-86.089 -34,-157Z" style="fill:#5b4c43;"/><path d="M839.5,675.5c0,0 -28.89,34.489 -10,57c18.89,22.511 68,88 68,88c0,0 -2.224,-103.844 -9,-128c-6.776,-24.156 -17.89,-49.844 -53,-51" style="fill:#00a071;"/><path d="M856,754c-0,0 49.443,160.156 48,236c-1.443,75.844 9,100 9,100l118,22c26.776,-105.178 -19.605,-239.597 8,-284c65.995,-106.153 134.099,-287.489 156,-338c12.213,-28.166 -150,-189 -150,-189c-0,0 14.557,-13.822 13,-16c-7.132,-9.976 -31.443,-51.156 -49,-38c-17.557,13.156 -78.443,57.511 -78,74c0.443,16.489 34,45 34,45c-0,0 16.711,-15.405 20.432,-11.01c9.11,10.76 66.458,133.854 92.568,141.01c16.279,4.461 -111.443,156.178 -135,160c-23.557,3.822 -47,21 -47,21" style="fill:#00a071;"/><path d="M1421.29,825.201c0,0 11.974,4.984 19.02,-6.911c7.046,-11.894 -11.003,-20.019 2.688,-31.29c4.19,-3.449 6.917,-20.704 11.679,-14.976c10.891,13.1 24.843,-12.937 23.321,-20.024c-1.704,-7.935 3.052,-33.433 -5.202,-35.214c-12.502,-2.698 5.774,-18.932 -4.798,-27.786c-16.642,-13.937 -16.024,-8.729 -23,-31c-6.976,-22.271 -25.024,-12.396 -18,-22c7.024,-9.604 6.976,-14.396 -6,-18c-12.976,-3.604 -15.691,15.604 -36,10c-20.309,-5.604 -40.358,-2.396 -52,5c-11.642,7.396 -15.691,22.604 -37,26c-21.309,3.396 -36.691,15.271 -28,27c8.691,11.729 14.642,34.937 -3,33c-17.642,-1.937 -33.024,23.271 -19,31c14.024,7.729 -15.358,24.271 9,35c24.358,10.729 6.976,19.271 20,29c13.024,9.729 26.976,25.604 34,21c7.024,-4.604 12,-2 12,-2l-7,-27c0,0 -15.826,-2.009 -25,-16c-9.174,-13.991 -25.826,-35.009 -10,-41c15.826,-5.991 28,20 28,20l9,-2c0,0 -0.826,-26.009 1,-38c1.826,-11.991 13,-36 13,-36c0,0 18.174,5.991 27,4c8.826,-1.991 10.174,24.991 20,25c9.826,0.009 7.174,-14.009 19,-17c11.826,-2.991 9.174,12.991 21,21c9.792,6.631 5.174,32.991 2,54c-3.174,21.009 -11,43 -11,43l13.292,2.201Z" style="fill:#f5df4e;"/><path d="M1309.04,839.798c-0,0 -20.849,-8.896 -20.934,17.184c-0.085,26.081 -6.8,105.289 2.891,101.018c9.691,-4.271 40.976,-5.729 40,-22c-0.976,-16.271 -21.605,-43.466 -21.957,-96.202Z" style="fill:none;stroke:#000;stroke-width:10px;stroke-dasharray:400,20,0,0;"/><path d="M1409.29,823.201c0,0 11.974,4.984 19.02,-6.911c7.046,-11.894 -11.003,-20.019 2.688,-31.29c4.19,-3.449 6.917,-20.704 11.679,-14.976c10.891,13.1 24.843,-12.937 23.321,-20.024c-1.704,-7.935 3.052,-33.433 -5.202,-35.214c-12.502,-2.698 5.774,-18.932 -4.798,-27.786c-16.642,-13.937 -16.024,-8.729 -23,-31c-6.976,-22.271 -25.024,-12.396 -18,-22c7.024,-9.604 6.976,-14.396 -6,-18c-12.976,-3.604 -15.691,15.604 -36,10c-20.309,-5.604 -40.358,-2.396 -52,5c-11.642,7.396 -15.691,22.604 -37,26c-21.309,3.396 -36.691,15.271 -28,27c8.691,11.729 14.642,34.937 -3,33c-17.642,-1.937 -33.024,23.271 -19,31c14.024,7.729 -15.358,24.271 9,35c24.358,10.729 6.976,19.271 20,29c13.024,9.729 26.976,25.604 34,21c7.024,-4.604 12,-2 12,-2" style="fill:none;stroke:#000;stroke-width:10px;stroke-dasharray:400,20,0,0;"/><path d="M1300.91,754.791c-0,0 -23.495,-18.093 -24.857,11.089c-1.214,26.014 21.256,35.057 30.947,34.12" style="fill:none;stroke:#000;stroke-width:10px;stroke-dasharray:400,20,0,0;"/><path d="M1409.92,754.185c0,0 -23.69,-0.391 -29.793,-2.09c3.897,15.634 5.873,31.905 5.873,31.905c0,0 -6.691,5.604 -14,5" style="fill:none;stroke:#000;stroke-width:10px;stroke-dasharray:400,20,0,0;"/><path d="M1414.64,723.868c0,-0 22.487,127.637 -48.68,113.975c-42.27,-8.114 -52.961,-31.843 -52.961,-31.843" style="fill:none;stroke:#000;stroke-width:10px;stroke-dasharray:400,20,0,0;"/><path d="M12,265l140,591l417.98,-111.627" style="fill:none;stroke:#000;stroke-width:10px;stroke-dasharray:400,20,0,0;"/><path d="M739.248,311.261l-50.248,-211.261l-677,165" style="fill:none;stroke:#000;stroke-width:10px;stroke-dasharray:400,20,0,0;"/><path d="M695,927c7.333,63 -6.89,121.822 5,157l-177.852,3.631c0,0 -41.04,-252.987 18.851,-303.554c59.891,-50.566 43.001,-40.077 43.001,-40.077" style="fill:none;stroke:#000;stroke-width:12px;stroke-dasharray:240,24,0,0;"/><path d="M876.768,463.442c0,-0 1.967,21.979 -4.039,48.607c-6.005,26.629 -4.729,43.951 -4.729,43.951" style="fill:none;stroke:#000;stroke-width:12px;stroke-dasharray:240,24,0,0;"/><path d="M895,672c0,0 43.724,-48.322 19,-213c-8.335,-55.516 -64,-69 -64,-69c0,0 -20.224,-90.178 -123,-65c-102.776,25.178 -72.224,107.489 -108,146c-35.776,38.511 -40.89,71.489 -37,99c3.89,27.511 -56.557,75.822 -41,109c15.557,33.178 61.776,34.156 44,73c-17.776,38.844 -45.557,189.822 -27,223c18.557,33.178 -15.224,-67.178 53,-121c-13.11,140.844 25.518,132.23 53,157c-4.979,-21.538 33.428,-53.738 53.37,-162.961c12.159,-66.592 -20.283,-80.086 13.63,-130.039c14.716,-21.677 -5.579,-87.681 -34,-157" style="fill:none;stroke:#000;stroke-width:10px;stroke-dasharray:400,20,0,0;"/><path d="M828,676c0,0 -11.276,-7.322 -13,-47c-1.826,-42.029 12.575,-127.67 23,-160c18.276,-56.678 -4,-68 -4,-68c0,0 -27.136,-18.671 -71,17c-110.276,89.678 -42.724,148.322 -92,188" style="fill:none;stroke:#000;stroke-width:10px;stroke-dasharray:200,20,0,0;"/><path d="M881,485c0,0 21.784,-0.175 20,18c-1.784,18.175 -8.882,48.491 -28,37c1.549,-19.491 8.451,-35.175 8,-55Z" style="fill:#b57f69;"/><path d="M881.735,482.089c0,-0 20.41,5.075 15.191,27.739c-5.22,22.663 -15.475,29.732 -24.437,24.436" style="fill:none;stroke:#000;stroke-width:10px;stroke-dasharray:200,20,0,0;"/><path d="M822.7,486.096l-42.832,0" style="fill:none;stroke:#000;stroke-width:10px;stroke-dasharray:200,20,0,0;"/><path d="M704.705,487.333c0,-0 26.556,-1.759 38.14,3.877c6.581,13.804 0.689,67.091 0.689,67.091l28.45,0.813" style="fill:none;stroke:#000;stroke-width:10px;stroke-dasharray:200,20,0,0;"/><path d="M719.185,621.144c10.192,5.798 34.437,15.828 48.815,14.856c30.761,-2.079 48,-22 48,-22" style="fill:none;stroke:#000;stroke-width:10px;stroke-dasharray:200,20,0,0;"/><path d="M837,668c0,0 -28.89,34.489 -10,57c18.89,22.511 68,88 68,88c0,0 -2.224,-103.844 -9,-128c-6.776,-24.156 -17.89,-49.844 -53,-51" style="fill:none;stroke:#000;stroke-width:10px;stroke-dasharray:200,20,0,0;"/><path d="M846,754c0,0 49.443,160.156 48,236c-1.443,75.844 9,100 9,100l118,22c26.776,-105.178 -19.605,-239.597 8,-284c65.995,-106.153 134.099,-287.489 156,-338c12.213,-28.166 -150,-189 -150,-189c0,0 14.557,-13.822 13,-16c-7.132,-9.976 -31.443,-51.156 -49,-38c-17.557,13.156 -78.443,57.511 -78,74c0.443,16.489 34,45 34,45c0,0 16.711,-15.405 20.432,-11.01c9.11,10.76 66.458,133.854 92.568,141.01c16.279,4.461 -111.443,156.178 -135,160c-23.557,3.822 -47,21 -47,21" style="fill:none;stroke:#000;stroke-width:10px;stroke-dasharray:200,20,0,0;"/><circle cx="885" cy="845" r="6" style="fill:#fff;stroke:#000;stroke-width:6px;stroke-dasharray:120,12,0,0;"/><circle cx="903.667" cy="934.333" r="6" style="fill:#fff;stroke:#000;stroke-width:6px;stroke-dasharray:120,12,0,0;"/><circle cx="907.667" cy="1050.33" r="6" style="fill:#fff;stroke:#000;stroke-width:6px;stroke-dasharray:120,12,0,0;"/><path d="M729,784c0,0 69.11,23.156 120,-31" style="fill:none;stroke:#000;stroke-width:10px;stroke-dasharray:200,20,0,0;"/><path d="M1052.09,312.89l-5.089,-90.89l446,-11l19.786,247.331" style="fill:none;stroke:#000;stroke-width:10px;stroke-dasharray:400,20,0,0;"/><path d="M1518.42,528.701l4.584,57.299l-379.026,24.481" style="fill:none;stroke:#000;stroke-width:10px;stroke-dasharray:400,20,0,0;"/><path d="M1357,754l-25,0" style="fill:none;stroke:#000;stroke-width:10px;stroke-dasharray:400,20,0,0;"/><path d="M1309,805c0,0 -1.691,47.937 2,69" style="fill:none;stroke:#000;stroke-width:6px;stroke-dasharray:240,12,0,0;"/><path d="M1368,841c0,0 -0.691,25.271 21,31" style="fill:none;stroke:#000;stroke-width:6px;stroke-dasharray:240,12,0,0;"/><path d="M1285,853c0,0 -19.024,6.604 -30,9c-10.976,2.396 -76.358,-77.729 -80,-90c-2.907,-9.794 -26.943,-105.586 -33.87,-154.324" style="fill:none;stroke:#000;stroke-width:10px;stroke-dasharray:400,20,0,0;"/><path d="M1095.15,714.319c1.573,27.077 3.103,50.993 2.851,57.681c-0.642,17.063 91.309,162.271 115,179c23.691,16.729 -33.024,129.271 -24,137c9.024,7.729 83.642,16.937 84,11c0.358,-5.937 49.642,-130.396 48,-148" style="fill:none;stroke:#000;stroke-width:10px;stroke-dasharray:400,20,0,0;"/><path d="M1305,759c0,0 2.976,5.937 1,11c-1.976,5.063 10,-2 10,-2c0,0 -8.024,-31.063 -4,-42c4.024,-10.937 10.642,-13.729 13,-26c2.358,-12.271 17.642,3.604 29,-2c11.358,-5.604 15.976,24.937 23,24c7.024,-0.937 -1.024,-17.063 11,-17c12.024,0.063 15.976,-2.729 20,6c4.024,8.729 13,12 13,12" style="fill:none;stroke:#000;stroke-width:10px;stroke-dasharray:400,20,0,0;"/><path d="M1388,838c0,0 23.309,0.271 27,19c3.691,18.729 4.976,74.604 12,75c7.024,0.396 -13.691,4.271 -27,-7c-13.309,-11.271 -21.358,-8.063 -16,-20c5.358,-11.937 13.976,-20.729 7,-33" style="fill:none;stroke:#000;stroke-width:10px;stroke-dasharray:400,20,0,0;"/><path d="M1411,850c0,0 80.309,-109.729 84,-140c3.691,-30.271 6,-122 6,-122" style="fill:none;stroke:#000;stroke-width:10px;stroke-dasharray:400,20,0,0;"/><path d="M1520.24,540.478c15.222,2.858 33.821,12.906 30.76,38.522c-4.309,36.063 2,127 2,127c0,0 -67.024,218.271 -78,234c-10.976,15.729 22.976,116.271 37,138c14.024,21.729 -9.358,26.271 -23,24c-13.642,-2.271 -27.691,-14.396 -38,-42c-10.309,-27.604 -39.024,-63.729 -46,-86c-6.976,-22.271 -21.691,-43.729 -16,-57" style="fill:none;stroke:#000;stroke-width:10px;stroke-dasharray:400,20,0,0;"/><path d="M1316,884c0,0 16.642,13.604 50,13c33.358,-0.604 27,-15 27,-15" style="fill:none;stroke:#000;stroke-width:10px;stroke-dasharray:400,20,0,0;"/><path d="M889.026,113.555c11.883,11.321 36.891,32.9 43.004,63.712c7.317,36.885 41.847,56.684 57.53,72.878" style="fill:none;stroke:#000;stroke-width:10px;stroke-dasharray:100,20,0,0;"/><path d="M927.731,301.48c-14.198,-24.923 -34.642,-53.255 -47.403,-63.592c-12.76,-10.336 -55.105,-4.657 -62.11,-7.931c-7.005,-3.275 -14.929,-25.678 -17.606,-39.793c-2.428,-12.805 -18.662,-36.806 -15.422,-40.05c6.978,-6.989 20.99,-9.294 30.393,13.899c4.965,12.245 16.277,26.534 16.277,26.534c-0,-0 23.937,-8.89 36.762,3.63" style="fill:none;stroke:#000;stroke-width:10px;stroke-dasharray:100,20,0,0;"/><path d="M897.965,277.39l86.685,-60.047" style="fill:none;stroke:#000;stroke-width:10px;stroke-dasharray:100,20,0,0;"/><path d="M907.786,291.227l86.685,-60.047" style="fill:none;stroke:#000;stroke-width:10px;stroke-dasharray:100,20,0,0;"/><path d="M1514.57,479.183c-5.268,1.571 -10.715,3.072 -14.515,4.485c-7.168,2.664 -10.99,-2.415 -10.884,-6.856c-0,-0 9.148,-9.307 35.233,-16.389c3.811,-1.034 6.207,-0.498 7.552,1.202c0.383,0.485 0.707,0.932 0.976,1.35l3.064,-0.975l6,52l-2,33c-8.826,-4.509 -22,-7 -22,-7l-0.464,-8.238c-0.496,0.162 -0.962,0.308 -1.39,0.438c-7.301,2.222 -10.264,2.243 -12.135,-0.731c-2.092,-3.324 -1.945,-8.103 12.706,-14.249l-0.052,-0.92c-4.349,1.326 -8.532,2.466 -11.49,3.218c-7.601,1.932 -13.433,-2.064 -12.117,-6.85c1.567,-5.701 8.991,-8.335 18.719,-11.614c1.259,-0.424 2.583,-0.932 3.947,-1.457l-0.161,-2.848c-2.987,1.176 -6.781,2.538 -13.851,4.408c-6.723,1.779 -12.255,0.853 -12.916,-4.905c-0.298,-2.599 4.517,-6.831 25.895,-14.994l-0.117,-2.075Z" style="fill:#dfd6d1;"/><path d="M851.528,103.37c-0.477,-4.154 5.531,-8.523 13.124,-8.267c7.592,0.257 20.393,13.417 25.989,19.904c7.719,8.946 9.603,13.128 6.565,17.64c-3.427,5.089 -10.38,7.878 -28.619,-9.529c-5.698,-5.438 -16.47,-14.631 -17.059,-19.748Z" style="fill:none;stroke:#000;stroke-width:10px;stroke-dasharray:100,20,0,0;"/><path d="M1535.24,507.136c2.578,0.803 3.589,5.494 1.454,9.912c-2.135,4.418 -13.255,8.541 -18.549,10.152c-7.301,2.222 -10.264,2.243 -12.135,-0.731c-2.111,-3.354 -1.942,-8.19 13.107,-14.416c4.701,-1.945 12.946,-5.907 16.123,-4.917Z" style="fill:none;stroke:#000;stroke-width:10px;stroke-dasharray:100,20,0,0;"/><path d="M845.384,102.541c-4.809,-2.53 -13.575,-3.693 -14.944,8.251c-1.368,11.944 11.163,21.524 18.841,29.907c10.733,11.72 19.112,20.581 28.165,19.229c7.6,-1.134 9.605,-11.895 2.11,-21.445c-7.998,-10.192 -25.877,-31.578 -34.172,-35.942Z" style="fill:none;stroke:#000;stroke-width:10px;stroke-dasharray:100,20,0,0;"/><path d="M1537.34,503.723c2.751,-2.18 5.729,-7.054 -0.969,-10.984c-6.698,-3.929 -15.632,0.97 -22.59,3.315c-9.728,3.279 -17.152,5.913 -18.719,11.614c-1.316,4.786 4.516,8.782 12.117,6.85c8.11,-2.062 25.415,-7.035 30.161,-10.795Z" style="fill:none;stroke:#000;stroke-width:10px;stroke-dasharray:100,20,0,0;"/><path d="M808.903,138.099c-0,-0 -9.143,-9.119 -0.992,-16.943c9.719,-9.332 18.592,1.394 22.469,6.012c8.092,9.638 11.117,9.935 25.35,27.716c6.728,8.405 8.881,16.817 1.144,21.358c-3.947,2.315 -14.928,-3.3 -47.971,-38.143Z" style="fill:none;stroke:#000;stroke-width:10px;stroke-dasharray:100,20,0,0;"/><path d="M1525.86,472.881c0,0 7.776,-3.018 10.268,3.841c2.973,8.18 -5.682,10.619 -9.423,11.703c-7.807,2.261 -8.773,3.97 -22.996,7.732c-6.723,1.779 -12.255,0.853 -12.916,-4.905c-0.336,-2.936 5.85,-7.956 35.067,-18.371Z" style="fill:none;stroke:#000;stroke-width:10px;stroke-dasharray:100,20,0,0;"/><path d="M783.845,148.261c-3.019,-5.059 -4.593,-8.477 -3.028,-11.445c4.444,-8.429 7.371,-6.191 15.713,-4.818c7.614,1.253 24.91,25.337 35.473,36.18c8.261,8.479 3.463,17.072 -2.89,19.703" style="fill:none;stroke:#000;stroke-width:10px;stroke-dasharray:100,20,0,0;"/><path d="M1526.41,455.423c3.811,-1.034 6.207,-0.498 7.552,1.202c3.818,4.828 1.731,5.972 -1.26,10.541c-2.729,4.171 -21.476,8.095 -30.641,11.502c-7.168,2.664 -10.99,-2.415 -10.884,-6.856c-0,-0 9.148,-9.307 35.233,-16.389Z" style="fill:none;stroke:#000;stroke-width:10px;stroke-dasharray:100,20,0,0;"/><path d="M1537,463c0,0 4.109,30.211 4.274,47.544c0.193,20.112 -3.539,28.08 -3.274,33.456" style="fill:none;stroke:#000;stroke-width:10px;stroke-dasharray:100,20,0,0;"/><ellipse cx="866" cy="1094.5" rx="677" ry="69.5" style="fill:#fff;"/></g></svg>