<?xml version="1.0" encoding="UTF-8" standalone="no"?>
<!DOCTYPE svg PUBLIC "-//W3C//DTD SVG 1.1//EN" "http://www.w3.org/Graphics/SVG/1.1/DTD/svg11.dtd">
<svg width="100%" height="100%" viewBox="0 0 150 151" version="1.1" xmlns="http://www.w3.org/2000/svg" xmlns:xlink="http://www.w3.org/1999/xlink" xml:space="preserve" xmlns:serif="http://www.serif.com/" style="fill-rule:evenodd;clip-rule:evenodd;stroke-linecap:round;stroke-linejoin:round;stroke-miterlimit:1.5;">
    <g transform="matrix(1,0,0,1,-1380,-3093)">
        <g id="Plan-de-travail1" serif:id="Plan de travail1" transform="matrix(1.12782,0,0,1.12782,-7605.34,2425.83)">
            <rect x="7967" y="592" width="133" height="133" style="fill:none;"/>
            <g transform="matrix(0.886667,0,0,0.886667,6744.29,-2143.81)">
                <path d="M1496.27,3191.55C1504.78,3186.46 1524.45,3145.31 1518.31,3135.02C1512.16,3124.74 1467.9,3124.75 1459.38,3129.84L1399.43,3165.67C1390.91,3170.76 1388.13,3181.8 1393.22,3190.32L1411.66,3221.18C1416.75,3229.69 1427.8,3232.47 1436.31,3227.38L1496.27,3191.55ZM1508.42,3136.53C1510.97,3136.53 1513.04,3138.6 1513.04,3141.15C1513.04,3143.7 1510.97,3145.77 1508.42,3145.77C1505.87,3145.77 1503.8,3143.7 1503.8,3141.15C1503.8,3138.6 1505.87,3136.53 1508.42,3136.53Z" style="fill:rgb(245,223,78);"/>
            </g>
            <g transform="matrix(0.233603,0.390868,-0.390868,0.233603,8290.44,-87.9347)">
                <path d="M1050.96,1431.37C1050.96,1431.37 1044.39,1286.04 1052.22,1265.82C1071.3,1216.55 1115.46,1177.89 1115.46,1177.89C1110.69,1174.6 1106.28,1172.69 1102.53,1172.69C1079.2,1172.69 1035,1246.68 1035,1266L1035,1402C1035,1414.3 1041.36,1425.13 1050.96,1431.37Z" style="fill:rgb(245,223,78);"/>
            </g>
            <g transform="matrix(0.233603,0.390868,-0.390868,0.233603,8290.44,-87.9347)">
                <path d="M1115.46,1177.89C1110.69,1174.6 1106.28,1172.69 1102.53,1172.69C1079.2,1172.69 1035,1246.68 1035,1266L1035,1402C1035,1414.3 1041.36,1425.13 1050.96,1431.37" style="fill:none;stroke:black;stroke-width:13.63px;stroke-dasharray:272.61,27.26,0,0;"/>
            </g>
            <g transform="matrix(0.233603,0.390868,-0.390868,0.233603,8290.44,-75.1847)">
                <path d="M1175,1266C1175,1246.68 1125.86,1172.69 1102.53,1172.69C1079.2,1172.69 1035,1246.68 1035,1266L1035,1402C1035,1421.32 1050.68,1437 1070,1437L1140,1437C1159.32,1437 1175,1421.32 1175,1402L1175,1266Z" style="fill:none;stroke:black;stroke-width:13.63px;stroke-dasharray:272.61,27.26,0,0;"/>
            </g>
            <g transform="matrix(0.455355,0,0,0.455355,7521.71,59.9963)">
                <circle cx="1226" cy="1265" r="9" style="fill:none;stroke:black;stroke-width:13.63px;stroke-dasharray:272.61,27.26,0,0;"/>
            </g>
            <g transform="matrix(0.667353,-0.407156,0.461798,0.756915,5711.75,-1167.41)">
                <rect x="1257" y="3114" width="99" height="7" style="fill:rgb(0,160,113);"/>
            </g>
            <g transform="matrix(0.667353,-0.407156,0.229958,0.376915,6438.43,24.1808)">
                <rect x="1257" y="3114" width="99" height="7" style="fill:rgb(160,219,169);"/>
            </g>
            <g transform="matrix(0.667353,-0.407156,0.229958,0.376915,6441.24,28.7619)">
                <rect x="1257" y="3114" width="99" height="7" style="fill:rgb(160,219,169);"/>
            </g>
        </g>
    </g>
</svg>
